fd_1_states
version=1
nRows=31
nColumns=17
inDegrees=yes

# SIMM Motion File Header:
name fd_1_states
datacolumns 17
datarows 31
otherdata 1
range 0.030000 0.050272
endheader
time	/jointset/r_shoulder/r_shoulder_elev/value	/jointset/r_shoulder/r_shoulder_elev/speed	/jointset/r_elbow/r_elbow_flex/value	/jointset/r_elbow/r_elbow_flex/speed	/forceset/TRIlong/activation	/forceset/TRIlong/fiber_length	/forceset/TRIlat/activation	/forceset/TRIlat/fiber_length	/forceset/TRImed/activation	/forceset/TRImed/fiber_length	/forceset/BIClong/activation	/forceset/BIClong/fiber_length	/forceset/BICshort/activation	/forceset/BICshort/fiber_length	/forceset/BRA/activation	/forceset/BRA/fiber_length
      0.030000	      0.000000	      0.000000	      8.400020	    280.000005	      0.022299	      0.139439	      0.020000	      0.073399	      0.020000	      0.068439	      0.020000	      0.147002	      0.021993	      0.146339	      0.104115	      0.091171
      0.030076	      0.000000	      0.000346	      8.421392	    280.000302	      0.022297	      0.139447	      0.020000	      0.073407	      0.020000	      0.068455	      0.020028	      0.146997	      0.022887	      0.146334	      0.104053	      0.091166
      0.030153	      0.000000	      0.000325	      8.442765	    280.001632	      0.022295	      0.139455	      0.020000	      0.073415	      0.020000	      0.068467	      0.020061	      0.146992	      0.023942	      0.146328	      0.103979	      0.091160
      0.030534	     -0.000000	     -0.001271	      8.549629	    280.012199	      0.022283	      0.139497	      0.020000	      0.073456	      0.020000	      0.068514	      0.020218	      0.146968	      0.028957	      0.146296	      0.103610	      0.091134
      0.031217	     -0.000002	     -0.004311	      8.740893	    280.030383	      0.022262	      0.139570	      0.020000	      0.073530	      0.020000	      0.068589	      0.020473	      0.146924	      0.036955	      0.146224	      0.102956	      0.091087
      0.032299	     -0.000009	     -0.008050	      9.043689	    280.053823	      0.022230	      0.139688	      0.020000	      0.073647	      0.020000	      0.068704	      0.020815	      0.146853	      0.047506	      0.146092	      0.101938	      0.091013
      0.033286	     -0.000018	     -0.009772	      9.320117	    280.068548	      0.022201	      0.139795	      0.020000	      0.073754	      0.020000	      0.068814	      0.021072	      0.146787	      0.055346	      0.145965	      0.101026	      0.090945
      0.034148	     -0.000027	     -0.012908	      9.561517	    280.084901	      0.022176	      0.139889	      0.020000	      0.073848	      0.020000	      0.068904	      0.021260	      0.146729	      0.061084	      0.145855	      0.100244	      0.090887
      0.035009	     -0.000039	     -0.013921	      9.802930	    280.093897	      0.022151	      0.139984	      0.020000	      0.073942	      0.020000	      0.069000	      0.021420	      0.146671	      0.065978	      0.145745	      0.099473	      0.090829
      0.035871	     -0.000052	     -0.016182	     10.044350	    280.105205	      0.022126	      0.140078	      0.020000	      0.074036	      0.020000	      0.069091	      0.021556	      0.146612	      0.070167	      0.145639	      0.098714	      0.090771
      0.036733	     -0.000066	     -0.016358	     10.285778	    280.109014	      0.022102	      0.140172	      0.020000	      0.074131	      0.020000	      0.069188	      0.021672	      0.146553	      0.073766	      0.145534	      0.097968	      0.090713
      0.037595	     -0.000081	     -0.017071	     10.527208	    280.112768	      0.022078	      0.140267	      0.020000	      0.074225	      0.020000	      0.069279	      0.021770	      0.146493	      0.076865	      0.145433	      0.097233	      0.090655
      0.038457	     -0.000095	     -0.015187	     10.768638	    280.107201	      0.022054	      0.140362	      0.020000	      0.074320	      0.020000	      0.069376	      0.021854	      0.146433	      0.079540	      0.145334	      0.096509	      0.090597
      0.039319	     -0.000107	     -0.013012	     11.010062	    280.098826	      0.022031	      0.140457	      0.020000	      0.074415	      0.020000	      0.069468	      0.021925	      0.146373	      0.081854	      0.145238	      0.095796	      0.090540
      0.039821	     -0.000113	     -0.010173	     11.150543	    280.088409	      0.022017	      0.140512	      0.020000	      0.074470	      0.020000	      0.069524	      0.021961	      0.146338	      0.083054	      0.145183	      0.095387	      0.090506
      0.040028	     -0.000115	     -0.008877	     11.208575	    280.083530	      0.022012	      0.140535	      0.020000	      0.074493	      0.020000	      0.069547	      0.022057	      0.146323	      0.083445	      0.145160	      0.095230	      0.090492
      0.040150	     -0.000116	     -0.008060	     11.242691	    280.080443	      0.022008	      0.140549	      0.020000	      0.074507	      0.020000	      0.069560	      0.022734	      0.146314	      0.083406	      0.145147	      0.095296	      0.090484
      0.040271	     -0.000117	     -0.007213	     11.276807	    280.077237	      0.022005	      0.140562	      0.020000	      0.074520	      0.020000	      0.069574	      0.023471	      0.146305	      0.083360	      0.145134	      0.095385	      0.090476
      0.040880	     -0.000120	     -0.002936	     11.447379	    280.060997	      0.021989	      0.140629	      0.020000	      0.074587	      0.020000	      0.069641	      0.026895	      0.146255	      0.083130	      0.145071	      0.095804	      0.090435
      0.042467	     -0.000118	      0.003404	     11.891620	    280.035516	      0.021947	      0.140805	      0.020000	      0.074762	      0.020000	      0.069815	      0.034095	      0.146112	      0.082543	      0.144916	      0.096724	      0.090326
      0.043300	     -0.000115	      0.003885	     12.124853	    280.032571	      0.021926	      0.140897	      0.020000	      0.074855	      0.020000	      0.069908	      0.037079	      0.146036	      0.082240	      0.144839	      0.097123	      0.090269
      0.044132	     -0.000112	      0.000546	     12.358088	    280.041892	      0.021905	      0.140990	      0.020000	      0.074947	      0.020000	      0.069999	      0.039628	      0.145960	      0.081942	      0.144764	      0.097474	      0.090211
      0.045145	     -0.000115	     -0.004595	     12.641687	    280.057230	      0.021879	      0.141102	      0.020000	      0.075060	      0.020000	      0.070114	      0.042239	      0.145869	      0.081585	      0.144675	      0.097843	      0.090141
      0.045938	     -0.000121	     -0.011857	     12.863788	    280.078767	      0.021859	      0.141191	      0.020000	      0.075148	      0.020000	      0.070198	      0.043970	      0.145798	      0.081309	      0.144607	      0.098095	      0.090086
      0.046731	     -0.000133	     -0.018117	     13.085904	    280.097052	      0.021840	      0.141279	      0.020000	      0.075237	      0.020000	      0.070289	      0.045469	      0.145729	      0.081037	      0.144540	      0.098317	      0.090031
      0.047747	     -0.000156	     -0.027765	     13.370565	    280.124104	      0.021815	      0.141392	      0.020000	      0.075350	      0.020000	      0.070399	      0.047100	      0.145640	      0.080694	      0.144455	      0.098565	      0.089961
      0.048551	     -0.000181	     -0.033061	     13.595811	    280.137371	      0.021796	      0.141482	      0.020000	      0.075440	      0.020000	      0.070493	      0.048196	      0.145570	      0.080426	      0.144389	      0.098735	      0.089906
      0.049356	     -0.000210	     -0.039246	     13.821067	    280.151677	      0.021777	      0.141572	      0.020000	      0.075530	      0.020000	      0.070579	      0.049146	      0.145501	      0.080162	      0.144322	      0.098885	      0.089850
      0.049839	     -0.000229	     -0.041348	     13.956374	    280.154703	      0.021765	      0.141626	      0.020000	      0.075585	      0.020000	      0.070634	      0.049655	      0.145460	      0.080004	      0.144283	      0.098966	      0.089817
      0.050055	     -0.000238	     -0.042179	     14.017153	    280.155498	      0.021760	      0.141650	      0.020000	      0.075609	      0.020000	      0.070658	      0.050028	      0.145441	      0.079977	      0.144265	      0.098988	      0.089802
      0.050272	     -0.000247	     -0.042885	     14.077933	    280.155788	      0.021755	      0.141675	      0.020000	      0.075633	      0.020000	      0.070682	      0.051434	      0.145423	      0.080421	      0.144247	      0.098926	      0.089788
